<svg width="480" height="442" viewBox="0 0 480 442" fill="none" xmlns="http://www.w3.org/2000/svg">
<g filter="url(#filter0_d_223_481)">
<path d="M377.367 299.354L280.627 276.694L279.168 351.163C278.946 362.513 263.622 363.663 255.097 353.293L203.302 290.296L157.144 328.862C150.784 334.175 140.612 327.371 140.787 318.241L141.93 258.328L91.4892 258.002C84.9288 257.96 81.7647 249.179 86.2551 243.917L118.246 206.438L83.8519 180.323C79.4123 176.951 81.7516 168.997 87.5993 167.445L131.821 155.724L122.259 115.144C120.983 109.724 127.779 103.933 133.288 105.818L176.045 120.447L199.034 75.8403C202.31 69.4807 212.94 67.573 216.131 72.9262L240.496 113.802L303.122 82.5585C312.836 77.7115 324.958 82.617 322.221 90.5981L302.722 147.476L394.001 158.351C409.186 160.162 414.894 173.112 402.647 178.804L324.032 215.345L391.316 280.15C402.491 290.914 393.561 303.15 377.356 299.354L377.367 299.354Z" fill="#C9AFE6"/>
</g>
<path d="M288.805 195.821C289.304 196.151 289.789 196.501 290.254 196.872C298.309 203.209 301.694 214.873 303.004 225.609C304.541 238.18 303.228 249.484 303.228 249.484C303.228 249.484 267.371 269.847 248.191 257.144C229.012 244.442 233.768 203.481 233.768 203.481C233.768 203.481 242.273 198.651 253.216 195.166C264.626 191.527 278.693 189.35 288.519 195.642C288.614 195.701 288.709 195.764 288.802 195.826L288.805 195.821Z" fill="white"/>
<path d="M197.813 135.558C198.311 135.888 198.797 136.238 199.261 136.609C207.317 142.947 210.702 154.61 212.012 165.346C213.548 177.917 212.236 189.221 212.236 189.221C212.236 189.221 176.378 209.584 157.199 196.881C138.019 184.179 142.776 143.218 142.776 143.218C142.776 143.218 151.281 138.388 162.223 134.903C173.634 131.264 187.701 129.088 197.527 135.379C197.621 135.438 197.717 135.501 197.81 135.563L197.813 135.558Z" fill="white"/>
<mask id="mask0_223_481" style="mask-type:alpha" maskUnits="userSpaceOnUse" x="141" y="130" width="71" height="71">
<path d="M196.744 134.849C197.242 135.179 197.728 135.529 198.192 135.9C206.248 142.238 209.633 153.901 210.943 164.637C212.479 177.208 211.166 188.512 211.166 188.512C211.166 188.512 175.309 208.875 156.13 196.172C136.95 183.47 141.707 142.509 141.707 142.509C141.707 142.509 150.211 137.679 161.154 134.194C172.565 130.555 186.632 128.379 196.458 134.67C196.552 134.729 196.647 134.792 196.74 134.854L196.744 134.849Z" fill="white"/>
</mask>
<g mask="url(#mask0_223_481)">
<ellipse cx="145.341" cy="149.212" rx="40.0638" ry="51.3353" transform="rotate(33.5162 145.341 149.212)" fill="black"/>
</g>
<mask id="mask1_223_481" style="mask-type:alpha" maskUnits="userSpaceOnUse" x="233" y="191" width="71" height="71">
<path d="M288.669 195.73C289.168 196.06 289.653 196.41 290.118 196.781C298.173 203.118 301.558 214.782 302.869 225.518C304.405 238.089 303.092 249.393 303.092 249.393C303.092 249.393 267.235 269.756 248.055 257.053C228.876 244.351 233.632 203.39 233.632 203.39C233.632 203.39 242.137 198.56 253.08 195.075C264.49 191.436 278.557 189.259 288.383 195.551C288.478 195.61 288.573 195.673 288.666 195.735L288.669 195.73Z" fill="white"/>
</mask>
<g mask="url(#mask1_223_481)">
<ellipse cx="237.266" cy="210.093" rx="40.0638" ry="51.3353" transform="rotate(33.5162 237.266 210.093)" fill="black"/>
</g>
<path d="M168.928 258.163L187.529 235.815C189.668 233.245 193.52 232.98 195.99 235.233L218.935 256.158" stroke="black" stroke-width="2.93309" stroke-linecap="round" stroke-linejoin="round"/>
<defs>
<filter id="filter0_d_223_481" x="3.09944e-05" y="-1.57356e-05" width="479.104" height="441.959" filterUnits="userSpaceOnUse" color-interpolation-filters="sRGB">
<feFlood flood-opacity="0" result="BackgroundImageFix"/>
<feColorMatrix in="SourceAlpha" type="matrix" values="0 0 0 0 0 0 0 0 0 0 0 0 0 0 0 0 0 0 127 0" result="hardAlpha"/>
<feOffset dx="-5.86619" dy="5.86619"/>
<feGaussianBlur stdDeviation="37.8369"/>
<feComposite in2="hardAlpha" operator="out"/>
<feColorMatrix type="matrix" values="0 0 0 0 1 0 0 0 0 1 0 0 0 0 1 0 0 0 0.14 0"/>
<feBlend mode="normal" in2="BackgroundImageFix" result="effect1_dropShadow_223_481"/>
<feBlend mode="normal" in="SourceGraphic" in2="effect1_dropShadow_223_481" result="shape"/>
</filter>
</defs>
</svg>
